<svg version="1.1" id="Layer_1" xmlns="http://www.w3.org/2000/svg" xmlns:xlink="http://www.w3.org/1999/xlink" x="0px" y="0px"
	 width="100%" viewBox="0 0 427 414" enable-background="new 0 0 427 414" xml:space="preserve">
<path fill="#FFFEFE" opacity="1.000000" stroke="none" 
	d="
M254.000000,415.000000 
	C169.333344,415.000000 85.166687,415.000000 1.000023,415.000000 
	C1.000015,277.000031 1.000015,139.000046 1.000008,1.000060 
	C143.333298,1.000040 285.666595,1.000040 427.999908,1.000020 
	C427.999939,138.999939 427.999939,276.999878 427.999969,414.999908 
	C370.166656,415.000000 312.333344,415.000000 254.000000,415.000000 
M209.499939,391.280426 
	C242.822922,391.278870 276.146301,391.378754 309.468811,391.252594 
	C362.706390,391.050995 404.887909,348.754181 404.953674,295.494537 
	C405.031830,232.180695 405.035248,168.866592 404.952698,105.552742 
	C404.883301,52.314510 362.617615,9.962094 309.393982,9.867515 
	C245.913620,9.754707 182.432785,9.763047 118.952377,9.864597 
	C65.500481,9.950104 23.256483,52.318363 23.183912,105.876907 
	C23.098347,169.024124 23.136045,232.171570 23.215160,295.318817 
	C23.221605,300.462616 23.555153,305.674133 24.417868,310.738129 
	C32.532227,358.368195 71.553879,391.193726 120.027023,391.270569 
	C149.517914,391.317322 179.008957,391.280060 209.499939,391.280426 
z"/>
<path fill="#BE3144" opacity="1.000000" stroke="none" 
	d="
M208.999939,391.280457 
	C179.008957,391.280060 149.517914,391.317322 120.027023,391.270569 
	C71.553879,391.193726 32.532227,358.368195 24.417868,310.738129 
	C23.555153,305.674133 23.221605,300.462616 23.215160,295.318817 
	C23.136045,232.171570 23.098347,169.024124 23.183912,105.876907 
	C23.256483,52.318363 65.500481,9.950104 118.952377,9.864597 
	C182.432785,9.763047 245.913620,9.754707 309.393982,9.867515 
	C362.617615,9.962094 404.883301,52.314510 404.952698,105.552742 
	C405.035248,168.866592 405.031830,232.180695 404.953674,295.494537 
	C404.887909,348.754181 362.706390,391.050995 309.468811,391.252594 
	C276.146301,391.378754 242.822922,391.278870 208.999939,391.280457 
M287.819458,132.283112 
	C289.863159,129.865677 288.342834,128.500702 286.392029,127.132271 
	C256.926270,106.462906 224.276596,100.552094 189.570480,108.151237 
	C167.285217,113.030746 150.135132,125.750397 144.359543,149.100632 
	C138.435959,173.049362 143.610397,195.983124 168.821198,208.156494 
	C181.404602,214.232574 195.359619,217.470200 208.698639,221.978668 
	C218.539108,225.304642 228.724045,227.871704 238.119568,232.167725 
	C245.076645,235.348770 244.824966,245.320587 238.206421,249.385712 
	C235.074142,251.309555 231.185303,252.556961 227.514709,252.951050 
	C213.123108,254.496216 199.228378,251.876587 186.196762,245.808411 
	C177.843460,241.918686 170.004578,236.924225 161.456497,232.158157 
	C152.498505,242.825500 143.240768,253.849792 133.832275,265.053589 
	C134.799179,266.095795 135.428406,267.149628 136.355469,267.715332 
	C145.917221,273.550049 155.029160,280.459930 165.221237,284.857208 
	C191.029282,295.991821 218.083206,299.321899 245.733093,293.018921 
	C276.475525,286.010956 293.320923,266.406586 294.367340,237.501938 
	C294.929138,221.984390 290.699280,208.176407 277.840332,198.798431 
	C270.442719,193.403412 262.056366,188.763901 253.423065,185.800171 
	C239.471451,181.010712 224.884659,178.102905 210.704971,173.928741 
	C206.034851,172.553970 201.290298,170.367172 197.476532,167.399323 
	C191.830734,163.005844 192.814041,154.573013 199.053085,151.028778 
	C201.854813,149.437180 205.203613,148.387314 208.411850,148.011963 
	C217.829361,146.910187 227.122971,148.274185 235.859711,151.773743 
	C245.489807,155.631134 254.814865,160.250076 264.708466,164.734741 
	C272.033813,154.453339 279.718262,143.667908 287.819458,132.283112 
z"/>
<path fill="#FFFDFE" opacity="1.000000" stroke="none" 
	d="
M287.611084,132.582794 
	C279.718262,143.667908 272.033813,154.453339 264.708466,164.734741 
	C254.814865,160.250076 245.489807,155.631134 235.859711,151.773743 
	C227.122971,148.274185 217.829361,146.910187 208.411850,148.011963 
	C205.203613,148.387314 201.854813,149.437180 199.053085,151.028778 
	C192.814041,154.573013 191.830734,163.005844 197.476532,167.399323 
	C201.290298,170.367172 206.034851,172.553970 210.704971,173.928741 
	C224.884659,178.102905 239.471451,181.010712 253.423065,185.800171 
	C262.056366,188.763901 270.442719,193.403412 277.840332,198.798431 
	C290.699280,208.176407 294.929138,221.984390 294.367340,237.501938 
	C293.320923,266.406586 276.475525,286.010956 245.733093,293.018921 
	C218.083206,299.321899 191.029282,295.991821 165.221237,284.857208 
	C155.029160,280.459930 145.917221,273.550049 136.355469,267.715332 
	C135.428406,267.149628 134.799179,266.095795 133.832275,265.053589 
	C143.240768,253.849792 152.498505,242.825500 161.456497,232.158157 
	C170.004578,236.924225 177.843460,241.918686 186.196762,245.808411 
	C199.228378,251.876587 213.123108,254.496216 227.514709,252.951050 
	C231.185303,252.556961 235.074142,251.309555 238.206421,249.385712 
	C244.824966,245.320587 245.076645,235.348770 238.119568,232.167725 
	C228.724045,227.871704 218.539108,225.304642 208.698639,221.978668 
	C195.359619,217.470200 181.404602,214.232574 168.821198,208.156494 
	C143.610397,195.983124 138.435959,173.049362 144.359543,149.100632 
	C150.135132,125.750397 167.285217,113.030746 189.570480,108.151237 
	C224.276596,100.552094 256.926270,106.462906 286.392029,127.132271 
	C288.342834,128.500702 289.863159,129.865677 287.611084,132.582794 
z"/>
</svg>